<mxfile host="65bd71144e">
    <diagram id="McGvFr3E6imwpyb7-E5x" name="Страница 1">
        <mxGraphModel dx="864" dy="676" grid="1" gridSize="10" guides="1" tooltips="1" connect="1" arrows="1" fold="1" page="1" pageScale="1" pageWidth="827" pageHeight="1169" math="0" shadow="0">
            <root>
                <mxCell id="0"/>
                <mxCell id="1" parent="0"/>
                <mxCell id="4" style="edgeStyle=none;html=1;entryX=0.5;entryY=0;entryDx=0;entryDy=0;" edge="1" parent="1" source="2" target="3">
                    <mxGeometry relative="1" as="geometry"/>
                </mxCell>
                <mxCell id="2" value="&lt;font style=&quot;font-size: 16px&quot;&gt;Начало&lt;/font&gt;" style="ellipse;whiteSpace=wrap;html=1;" vertex="1" parent="1">
                    <mxGeometry x="234" y="20" width="180" height="40" as="geometry"/>
                </mxCell>
                <mxCell id="16" value="" style="edgeStyle=none;html=1;fontSize=16;" edge="1" parent="1" source="3" target="15">
                    <mxGeometry relative="1" as="geometry"/>
                </mxCell>
                <mxCell id="3" value="&lt;font style=&quot;font-size: 17px&quot;&gt;i = 0&lt;br&gt;j = 0&lt;br&gt;array[i]&lt;br&gt;newArray[j]&lt;/font&gt;" style="rounded=0;whiteSpace=wrap;html=1;fillColor=#2A2A2A;" vertex="1" parent="1">
                    <mxGeometry x="200" y="90" width="246" height="90" as="geometry"/>
                </mxCell>
                <mxCell id="9" value="TRUE" style="edgeStyle=none;html=1;entryX=0.5;entryY=0;entryDx=0;entryDy=0;fontSize=16;" edge="1" parent="1" source="5" target="7">
                    <mxGeometry relative="1" as="geometry">
                        <mxPoint as="offset"/>
                    </mxGeometry>
                </mxCell>
                <mxCell id="12" value="FALSE" style="edgeStyle=none;html=1;entryX=1;entryY=0.5;entryDx=0;entryDy=0;fontSize=16;exitX=1;exitY=0.5;exitDx=0;exitDy=0;" edge="1" parent="1" source="5" target="10">
                    <mxGeometry x="-0.2009" relative="1" as="geometry">
                        <Array as="points">
                            <mxPoint x="524" y="330"/>
                            <mxPoint x="524" y="525"/>
                        </Array>
                        <mxPoint as="offset"/>
                    </mxGeometry>
                </mxCell>
                <mxCell id="5" value="array[i].Length &amp;lt;= 3" style="rhombus;whiteSpace=wrap;html=1;fontSize=16;fillColor=#2A2A2A;" vertex="1" parent="1">
                    <mxGeometry x="204" y="300" width="233.5" height="60" as="geometry"/>
                </mxCell>
                <mxCell id="11" style="edgeStyle=none;html=1;fontSize=16;" edge="1" parent="1" source="7" target="10">
                    <mxGeometry relative="1" as="geometry"/>
                </mxCell>
                <mxCell id="7" value="newArray[j] = array[i]" style="rounded=0;whiteSpace=wrap;html=1;fontSize=16;fillColor=#2A2A2A;" vertex="1" parent="1">
                    <mxGeometry x="228.75" y="400" width="184" height="40" as="geometry"/>
                </mxCell>
                <mxCell id="14" style="edgeStyle=none;html=1;fontSize=16;entryX=0;entryY=0.5;entryDx=0;entryDy=0;exitX=0;exitY=0.5;exitDx=0;exitDy=0;" edge="1" parent="1" source="10" target="15">
                    <mxGeometry relative="1" as="geometry">
                        <mxPoint x="124" y="525" as="targetPoint"/>
                        <Array as="points">
                            <mxPoint x="120" y="525"/>
                            <mxPoint x="120" y="230"/>
                        </Array>
                    </mxGeometry>
                </mxCell>
                <mxCell id="10" value="i = i+1" style="rounded=0;whiteSpace=wrap;html=1;fontSize=16;fillColor=#2A2A2A;" vertex="1" parent="1">
                    <mxGeometry x="277.75" y="510" width="86" height="30" as="geometry"/>
                </mxCell>
                <mxCell id="13" value="j = j+1" style="rounded=0;whiteSpace=wrap;html=1;fontSize=16;fillColor=#2A2A2A;" vertex="1" parent="1">
                    <mxGeometry x="277.75" y="460" width="86" height="30" as="geometry"/>
                </mxCell>
                <mxCell id="17" value="TRUE" style="edgeStyle=none;html=1;fontSize=16;" edge="1" parent="1" source="15" target="5">
                    <mxGeometry relative="1" as="geometry"/>
                </mxCell>
                <mxCell id="19" style="edgeStyle=none;html=1;entryX=1;entryY=0.5;entryDx=0;entryDy=0;fontSize=15;" edge="1" parent="1" source="15" target="18">
                    <mxGeometry relative="1" as="geometry">
                        <Array as="points">
                            <mxPoint x="640" y="230"/>
                            <mxPoint x="640" y="604"/>
                        </Array>
                    </mxGeometry>
                </mxCell>
                <mxCell id="20" value="&lt;span style=&quot;font-size: 16px&quot;&gt;FALSE&lt;/span&gt;" style="edgeLabel;html=1;align=center;verticalAlign=middle;resizable=0;points=[];fontSize=15;" vertex="1" connectable="0" parent="19">
                    <mxGeometry x="-0.0746" y="4" relative="1" as="geometry">
                        <mxPoint as="offset"/>
                    </mxGeometry>
                </mxCell>
                <mxCell id="15" value="i &amp;lt; array.Length" style="rhombus;whiteSpace=wrap;html=1;fontSize=16;fillColor=#2A2A2A;" vertex="1" parent="1">
                    <mxGeometry x="204" y="200" width="233.5" height="60" as="geometry"/>
                </mxCell>
                <mxCell id="18" value="&lt;font style=&quot;font-size: 15px&quot;&gt;Окончание&lt;/font&gt;" style="ellipse;whiteSpace=wrap;html=1;" vertex="1" parent="1">
                    <mxGeometry x="234" y="584" width="180" height="40" as="geometry"/>
                </mxCell>
            </root>
        </mxGraphModel>
    </diagram>
</mxfile>